<?xml version="1.0" encoding="UTF-8" standalone="no"?><!DOCTYPE svg PUBLIC "-//W3C//DTD SVG 1.1//EN" "http://www.w3.org/Graphics/SVG/1.1/DTD/svg11.dtd"><svg width="100%" height="100%" viewBox="0 0 3825 930" version="1.1" xmlns="http://www.w3.org/2000/svg" xmlns:xlink="http://www.w3.org/1999/xlink" xml:space="preserve" xmlns:serif="http://www.serif.com/" style="fill-rule:evenodd;clip-rule:evenodd;stroke-linejoin:round;stroke-miterlimit:2;"><rect id="Artboard1" x="0" y="0" width="3825" height="929.167" style="fill:none;"/><clipPath id="_clip1"><rect x="0" y="0" width="3825" height="929.167"/></clipPath><g clip-path="url(#_clip1)"><path d="M4.167,929.167l95.833,-0l-0,-279.241l6.347,-0c31.005,63.009 83.012,104.855 158.022,104.855c123.018,0 198.763,-103.59 198.763,-275.614c0,-172.025 -75.745,-270.834 -198.763,-270.834c-75.01,0 -127.017,34.535 -158.022,97.544l-6.347,0l0,-85.044l-95.833,0l-0,708.334Zm221.041,-256.666c-67.01,0 -125.208,-38.578 -125.208,-104.587l-0,-180.025c-0,-66.01 62.896,-104.556 129.905,-104.556c88.013,0 136.762,62.55 136.762,151.562l-0,86.012c-0,89.013 -53.447,151.594 -141.459,151.594Z" style="fill-rule:nonzero;"/><path d="M1508.36,658.927l-0,77.011l-0,-77.011Z"/><path d="M2775,75l-1800,0l0,79.167l1800,-0" style="fill:#a7aef9;"/><path d="M3041.48,152.655l274.616,-0" style="fill:none;"/><path d="M3158.33,154.167l495.834,-0l-0,-79.167l-495.834,0" style="fill:#a7aef9;"/><path d="M3316.1,75.644l-274.616,-0" style="fill:none;"/><path d="M2247.96,745.833l768.71,0l-0,-195.833l82.302,-74.653l192.694,270.486l114.016,0l-241.389,-329.735l215.272,-195.265l-104.562,0l-252.488,224.732l-5.845,-0l-0,-445.565l-95.834,0l0,666.667l-145.833,-0l-0,-445.834l-220.833,0l-0,79.167l125,0l-0,366.667l-274.891,-0l-13.519,79.166l89.65,-525l-94.393,0l-67.716,445.834l-10.892,-0l-99.287,-445.834l-116.177,0l-100.39,445.834l-12.102,-0l-64.193,-445.834l-98.023,0l91.875,525l142.8,0l93.281,-425l9.681,0l93.086,425Zm1157.72,0l415.154,0l0,-79.166l-166.666,-0l-0,-445.834l-220.834,0l0,79.167l125,0l0,366.667l-210.61,-0l57.956,79.166Zm-2664.47,0l1167.9,0l-13.854,-79.166l-178.588,-0l-0,-445.834l-220.834,0l0,79.167l125,0l0,366.667l-425,-0l0,-216.667c0,-76.011 49.82,-150 145.834,-150l79.166,0l0,-79.167l-48.638,0c-107.015,0 -153.022,63.041 -172.024,132.051l-4.338,-0l0,-132.051l-220.833,0l-0,79.167l125,0l-0,366.667l-358.794,-0c-94.013,-0 -151.791,-58.747 -151.791,-144.759l0,-26.075l368.918,0l0,-19.932c0,-149.021 -83.877,-267.568 -225.897,-267.568c-142.021,0 -236.603,104.81 -236.603,270.834c0,164.023 92.351,266.666 245.373,266.666Zm-8.77,-462.5c81.011,0 136.019,56.549 136.019,142.561l-0,11.606l-279.04,0l0,-8.606c0,-85.012 59.009,-145.561 143.021,-145.561Z"/></g></svg>