<?xml version="1.0" encoding="utf-8"?>
<!-- Generator: Adobe Illustrator 22.0.1, SVG Export Plug-In . SVG Version: 6.00 Build 0)  -->
<svg version="1.1" id="Layer_1" xmlns="http://www.w3.org/2000/svg" xmlns:xlink="http://www.w3.org/1999/xlink" x="0px" y="0px"
	 viewBox="0 0 288 288" style="enable-background:new 0 0 288 288;" xml:space="preserve">
<style type="text/css">
	.st0{fill:#AAADD7;}
</style>
<polygon points="9.8,173.5 28,173.5 28,137 9.8,137 9.8,129.3 37.4,129.3 37.4,173.5 54.5,173.5 54.5,181.3 9.8,181.3 "/>
<path d="M46.6,129.3h8.2l5.4,44.4h1l8.3-44.4h9.7l8.4,44.4h0.9l5.5-44.4h7.9l-7.6,52H82.4l-7.7-42H74l-7.9,42H54.2L46.6,129.3z"/>
<polygon points="99.2,173.5 117.5,173.5 117.5,137 99.2,137 99.2,129.3 126.9,129.3 126.9,173.5 144,173.5 144,181.3 99.2,181.3 "/>
<path d="M143.3,106.7h9.4v46.2h0.5l8.7-8.5l16.1-15.1h11.2l-21.3,20.4l23.8,31.6h-11.5l-19.2-26.2l-8.3,7.6v18.6h-9.4V106.7z"/>
<polygon points="188.7,173.5 207,173.5 207,137 188.7,137 188.7,129.3 216.4,129.3 216.4,173.5 233.5,173.5 233.5,181.3 
	188.7,181.3 "/>
<polygon points="233.5,173.5 251.7,173.5 251.7,137 233.5,137 233.5,129.3 261.1,129.3 261.1,173.5 278.2,173.5 278.2,181.3 
	233.5,181.3 "/>
<polyline points="188.7,173.5 185.8,173.5 188.7,177.4 "/>
<polyline points="188.7,137 181,137 188.7,129.7 "/>
<polyline points="99.2,173.5 95.4,173.5 94.3,181.3 99.2,181.3 "/>
<rect x="9.8" y="113.8" class="st0" width="117.1" height="7.8"/>
<rect x="169.1" y="113.8" class="st0" width="92" height="7.8"/>
</svg>
